{"title":"Sarrainodu (2016) Telugu HD DVDScr XviD - Exclusive","uid":14466623,"size":889223024,"categoryP":"video","categoryS":"movies","magnet":"?xt=urn:btih:ea27b89c2677b764845fde97f43518d68cbc39a4&amp;dn=Sarrainodu+%282016%29+Telugu+HD+DVDScr+XviD+-+Exclusive&amp;tr=udp%3A%2F%2Ftracker.leechers-paradise.org%3A6969&amp;tr=udp%3A%2F%2Fzer0day.ch%3A1337&amp;tr=udp%3A%2F%2Fopen.demonii.com%3A1337&amp;tr=udp%3A%2F%2Ftracker.coppersurfer.tk%3A6969&amp;tr=udp%3A%2F%2Fexodus.desync.com%3A6969","seeders":29,"leechers":3,"uploader":"tykoon123","files":2,"time":1461866533,"description":"http://imgh.us/sarrainodu-teaser-from-bunny-on-february-18_b_1502161008.jpg\r\n\r\nFormat version                           : Version 2\r\nFile size                                : 848 MiB\r\nDuration                                 : 2h 38mn\r\nOverall bit rate                         : 749 Kbps\r\n\r\nVideo\r\nID                                       : 1\r\nFormat                                   : AVC\r\nFormat/Info                              : Advanced Video Codec\r\nFormat profile                           :   \r\nFormat settings, CABAC                   : Yes\r\nFormat settings, ReFrames                : 5 frames\r\nCodec ID                                 : V_MPEG4/ISO/AVC\r\nDuration                                 : 2h 38mn\r\nBit rate                                 : 683 Kbps\r\nWidth                                    : 640 pixels\r\nHeight                                   : 272 pixels\r\nDisplay aspect ratio                     : 2.35:1\r\nFrame rate mode                          : Constant\r\nFrame rate                               : 25.000 fps\r\nColor space                              : YUV\r\nChroma subsampling                       : 4:2:0\r\nBit depth                                : 8 bits\r\nScan type                                : Progressive\r\nBits/(Pixel*Frame)                       : 0.157\r\nStream size                              : 773 MiB (91%)\r\nWriting library                          : x264 core  \r\nLanguage                                 : English\r\nDefault                                  : Yes\r\nForced                                   : No\r\nColor range                              : Limited\r\nColor primaries                          : BT.601 NTSC\r\nTransfer characteristics                 : BT.601\r\nMatrix coefficients                      : BT.601\r\n\r\nAudio\r\nID                                       : 2\r\nFormat                                   : AAC\r\nFormat/Info                              : Advanced Audio Codec\r\nFormat profile                           : LC\r\nCodec ID                                 : A_AAC\r\nDuration                                 : 2h 38mn\r\nBit rate                                 : 64.0 Kbps\r\nChannel(s)                               : 2 channels\r\nChannel positions                        : Front: L R\r\nSampling rate                            : 48.0 KHz\r\nFrame rate                               : 46.875 fps (1024 spf)\r\nCompression mode                         : Lossy\r\nDelay relative to video                  : 9ms\r\nStream size                              : 72.4 MiB (9%)\r\nLanguage                                 : Telugu\r\nDefault                                  : Yes\r\nForced                                   : No\r\n\r\nScreens: \nhttp://ultraimg.com/images/s18b764.png \nhttp://ultraimg.com/images/s2daeb8.png \nhttp://ultraimg.com/images/s36996f.png \nhttp://ultraimg.com/images/s418cd1.png \nhttp://ultraimg.com/images/s57ec7f.png \nhttp://ultraimg.com/images/s6b96b0.png \nhttp://ultraimg.com/images/s7c1fe8.png","torrent":{"xt":"urn:btih:ea27b89c2677b764845fde97f43518d68cbc39a4","amp;dn":"Sarrainodu+%282016%29+Telugu+HD+DVDScr+XviD+-+Exclusive","amp;tr":["udp%3A%2F%2Ftracker.leechers-paradise.org%3A6969","udp%3A%2F%2Fzer0day.ch%3A1337","udp%3A%2F%2Fopen.demonii.com%3A1337","udp%3A%2F%2Ftracker.coppersurfer.tk%3A6969","udp%3A%2F%2Fexodus.desync.com%3A6969"],"infoHash":"ea27b89c2677b764845fde97f43518d68cbc39a4","infoHashBuffer":{"type":"Buffer","data":[234,39,184,156,38,119,183,100,132,95,222,151,244,53,24,214,140,188,57,164]},"announce":[],"urlList":[]}}